<?xml version="1.0" encoding="UTF-8" standalone="no"?>
<!-- Created with Inkscape (http://www.inkscape.org/) -->

<svg
   xmlns:dc="http://purl.org/dc/elements/1.1/"
   xmlns:cc="http://creativecommons.org/ns#"
   xmlns:rdf="http://www.w3.org/1999/02/22-rdf-syntax-ns#"
   xmlns:svg="http://www.w3.org/2000/svg"
   xmlns="http://www.w3.org/2000/svg"
   xmlns:sodipodi="http://sodipodi.sourceforge.net/DTD/sodipodi-0.dtd"
   xmlns:inkscape="http://www.inkscape.org/namespaces/inkscape"
   width="744.09448819"
   height="1052.3622047"
   id="svg3200"
   version="1.1"
   inkscape:version="0.91 r13725"
   sodipodi:docname="clixx.io-logo.svg">
  <defs
     id="defs3202" />
  <sodipodi:namedview
     id="base"
     pagecolor="#ffffff"
     bordercolor="#666666"
     borderopacity="1.0"
     inkscape:pageopacity="0.0"
     inkscape:pageshadow="2"
     inkscape:zoom="1.979899"
     inkscape:cx="99.351395"
     inkscape:cy="905.39673"
     inkscape:document-units="px"
     inkscape:current-layer="layer1"
     showgrid="false"
     inkscape:window-width="1855"
     inkscape:window-height="1056"
     inkscape:window-x="65"
     inkscape:window-y="24"
     inkscape:window-maximized="1" />
  <metadata
     id="metadata3205">
    <rdf:RDF>
      <cc:Work
         rdf:about="">
        <dc:format>image/svg+xml</dc:format>
        <dc:type
           rdf:resource="http://purl.org/dc/dcmitype/StillImage" />
        <dc:title></dc:title>
      </cc:Work>
    </rdf:RDF>
  </metadata>
  <g
     inkscape:label="Layer 1"
     inkscape:groupmode="layer"
     id="layer1">
    <rect
       style="fill:#f1f1ef;fill-opacity:1;stroke:#ffffff;stroke-width:1.50058675;stroke-miterlimit:4;stroke-dasharray:none;stroke-dashoffset:0;stroke-opacity:1"
       id="rect3127"
       width="254.37785"
       height="62.590302"
       x="583.74524"
       y="122.38434"
       inkscape:export-filename="/home/dlyon/clixx.io/doc/source/svg/banner.png"
       inkscape:export-xdpi="103.03302"
       inkscape:export-ydpi="103.03302" />
    <text
       transform="scale(0.94898457,1.0537579)"
       sodipodi:linespacing="125%"
       id="text3131"
       y="51.406013"
       x="65.384537"
       style="font-style:italic;font-variant:normal;font-weight:normal;font-stretch:normal;font-size:9.00156021px;line-height:125%;font-family:Ubuntu;-inkscape-font-specification:'Ubuntu Italic';text-align:start;letter-spacing:0px;word-spacing:0px;writing-mode:lr-tb;text-anchor:start;fill:#babdb6;fill-opacity:1;stroke:none"
       xml:space="preserve"
       inkscape:export-xdpi="540.53003"
       inkscape:export-ydpi="540.53003"
       inkscape:export-filename="/home/dlyon/clixx.io/doc/source/svg/banner.png"><tspan
         sodipodi:role="line"
         id="tspan3008"
         x="65.384537"
         y="51.406013"
         style="font-style:italic;font-variant:normal;font-weight:normal;font-stretch:normal;font-family:Ubuntu;-inkscape-font-specification:'Ubuntu Italic'">IoT for a new generation</tspan></text>
    <path
       inkscape:connector-curvature="0"
       id="path4420"
       d="m 36.071153,57.106894 c -0.19769,-0.36889 -0.1633,-0.83979 0.17269,-2.36516 0.45874,-2.08263 1.02103,-8.41268 0.79869,-8.99133 -0.12789,-0.33283 -0.51088,-0.35208 -4.86451,-0.2446 -2.59913,0.0642 -4.80579,0.19667 -4.90369,0.29443 -0.0981,0.098 -0.0864,2.40971 0.0262,5.15302 0.11232,2.7364 0.14618,5.20624 0.0752,5.48853 -0.12309,0.48978 -0.18257,0.50735 -1.3002,0.38417 -0.64416,-0.071 -2.32556,-0.19124 -3.73645,-0.26722 -1.47428,-0.0794 -2.62849,-0.23511 -2.71398,-0.36617 -0.0818,-0.12542 -0.19571,-2.57355 -0.25312,-5.44028 l -0.10438,-5.21224 -3.54329,-0.10424 c -3.51901,-0.10353 -3.54519,-0.10782 -3.82257,-0.62547 -0.30712,-0.57317 -0.2319,-5.85161 0.14856,-10.42448 0.10972,-1.31869 0.2049,-7.00034 0.21153,-12.62588 0.009,-7.84411 0.0729,-10.30871 0.27301,-10.57338 0.24257,-0.3208 0.61407,-0.31672 5.27138,0.0579 5.74627,0.46222 14.65517,0.40425 18.43007,-0.11994 2.64306,-0.36701 4.53728,-0.37087 7.248359,-0.0147 1.38683,0.18217 3.4355,0.2415 6.10254,0.17673 4.75435,-0.11547 4.5806,-0.22427 3.74307,2.34404 -0.63172,1.93721 -0.66971,2.74326 -0.22649,4.80583 0.24068,1.12002 0.35721,4.05644 0.5011,12.62634 0.10311,6.14181 0.20453,11.25501 0.22536,11.36268 0.098,0.50655 -0.0433,0.89303 -0.37272,1.01926 -0.56927,0.21816 -4.44027,0.73213 -5.54583,0.73635 -0.55052,0.002 -1.61607,0.15813 -2.3679,0.34674 -1.36696,0.34291 -1.36696,0.34291 -1.21915,0.99032 0.22154,0.97028 0.36299,10.78787 0.15838,10.99221 -0.0975,0.0973 -1.771149,0.31938 -3.719299,0.49342 -1.94815,0.17405 -3.74542,0.3721 -3.99394,0.4401 -0.3298,0.0902 -0.51853,-8.3e-4 -0.69869,-0.33694 z m -11.33786,-3.20673 c 0.52286,-0.44915 0.58316,-0.63638 0.58575,-1.81887 0.003,-1.23867 -0.0324,-1.33521 -0.58155,-1.60053 -0.91712,-0.44306 -2.32434,-0.42129 -2.83909,0.0439 -0.64224,0.58044 -0.62351,2.37912 0.0312,2.99333 1.01548,0.95272 1.98558,1.08494 2.80373,0.38214 z m 17.68355,0.0228 c 0.25376,-0.18531 0.40459,-0.66222 0.48319,-1.52787 0.112779,-1.24215 0.103519,-1.26974 -0.71423,-2.12823 -1.05441,-1.10693 -1.85096,-1.17558 -2.64911,-0.2283 -1.10333,1.30949 -0.4499,3.44823 1.19917,3.92502 0.94286,0.27261 1.26262,0.26488 1.68098,-0.0406 z m -6.90528,-13.51391 c 1.83069,-0.28228 2.27528,-0.50296 3.51012,-1.74233 1.08591,-1.08989 3.48262,-5.37183 4.021979,-7.18563 0.40301,-1.35528 0.39773,-1.2679 0.0757,-1.25273 -0.14353,0.007 -0.753729,0.60381 -1.356009,1.32678 -1.23742,1.4854 -3.10049,2.79125 -5.65873,3.9663 -1.74335,0.80075 -1.74335,0.80075 -3.77992,0.66747 -3.51763,-0.23022 -6.29905,-1.3695 -8.30585,-3.4021 -0.71668,-0.72589 -1.39778,-1.31981 -1.51356,-1.31981 -0.11578,0 -0.21051,0.2738 -0.21051,0.60845 0,0.42196 0.29313,0.94913 0.9564,1.72003 0.52602,0.61138 1.48057,1.86216 2.12121,2.77952 1.52111,2.17811 2.09111,2.78302 2.97665,3.15895 2.10723,0.89456 4.3613,1.10702 7.1625,0.6751 z m -10.35045,-15.54022 c 1.07094,-0.7985 1.41343,-1.47306 1.41343,-2.78385 0,-1.36764 -0.37819,-2.061 -1.56364,-2.86673 -0.80941,-0.55015 -2.41584,-0.6359 -3.30058,-0.17618 -1.16216,0.60387 -1.58225,1.28802 -1.67395,2.72622 -0.1021,1.60133 0.38154,2.5816 1.60035,3.24373 0.97302,0.5286 2.71852,0.45768 3.52439,-0.14319 z m 17.792429,0.13972 c 1.26034,-0.64212 1.6794,-1.38869 1.6794,-2.99188 0,-1.16204 -0.0793,-1.45323 -0.54678,-2.00808 -0.74428,-0.88335 -1.547309,-1.25945 -2.689119,-1.25945 -1.1418,0 -1.94483,0.3761 -2.68911,1.25945 -0.46092,0.54705 -0.54666,0.85106 -0.546,1.93602 0.001,1.55956 0.46577,2.43831 1.6083,3.04048 1.01606,0.53552 2.16168,0.54396 3.183309,0.0235 z"
       style="fill:#00a0f0;fill-opacity:1"
       sodipodi:nodetypes="cssccscsscscscsccsssssssscccccscccccccccccsssscccsscsssssssssccssssssssscsscss" />
    <text
       xml:space="preserve"
       style="font-style:normal;font-variant:normal;font-weight:bold;font-stretch:normal;font-size:30.05249977px;line-height:125%;font-family:'Alien Encounters';-inkscape-font-specification:'Alien Encounters, Bold';text-align:start;letter-spacing:0px;word-spacing:0px;writing-mode:lr-tb;text-anchor:start;fill:#888a85;fill-opacity:1;stroke:none;stroke-width:1px;stroke-linecap:butt;stroke-linejoin:miter;stroke-opacity:1"
       x="80.745438"
       y="33.188591"
       id="text3348"
       sodipodi:linespacing="125%"
       transform="scale(0.77664577,1.2875883)"><tspan
         sodipodi:role="line"
         id="tspan3350"
         x="80.745438"
         y="33.188591">clixx.io</tspan></text>
  </g>
</svg>
