<?xml version="1.0" encoding="UTF-8" standalone="no"?>
<!-- Created with Inkscape (http://www.inkscape.org/) -->

<svg
   xmlns:dc="http://purl.org/dc/elements/1.1/"
   xmlns:cc="http://creativecommons.org/ns#"
   xmlns:rdf="http://www.w3.org/1999/02/22-rdf-syntax-ns#"
   xmlns:svg="http://www.w3.org/2000/svg"
   xmlns="http://www.w3.org/2000/svg"
   xmlns:sodipodi="http://sodipodi.sourceforge.net/DTD/sodipodi-0.dtd"
   xmlns:inkscape="http://www.inkscape.org/namespaces/inkscape"
   width="744.09448819"
   height="1052.3622047"
   id="svg2"
   version="1.1"
   inkscape:version="0.48.3.1 r9886"
   sodipodi:docname="RasperryPi-Frame.svg">
  <defs
     id="defs4" />
  <sodipodi:namedview
     id="base"
     pagecolor="#ffffff"
     bordercolor="#666666"
     borderopacity="1.0"
     inkscape:pageopacity="0.0"
     inkscape:pageshadow="2"
     inkscape:zoom="0.9899495"
     inkscape:cx="497.53634"
     inkscape:cy="535.79312"
     inkscape:document-units="px"
     inkscape:current-layer="layer1"
     showgrid="false"
     inkscape:window-width="1625"
     inkscape:window-height="1026"
     inkscape:window-x="55"
     inkscape:window-y="24"
     inkscape:window-maximized="1"
     inkscape:snap-global="false" />
  <metadata
     id="metadata7">
    <rdf:RDF>
      <cc:Work
         rdf:about="">
        <dc:format>image/svg+xml</dc:format>
        <dc:type
           rdf:resource="http://purl.org/dc/dcmitype/StillImage" />
        <dc:title></dc:title>
      </cc:Work>
    </rdf:RDF>
  </metadata>
  <g
     inkscape:label="Layer 1"
     inkscape:groupmode="layer"
     id="layer1">
    <rect
       style="fill:#eeeeec;fill-opacity:1;stroke:#eeeeec;stroke-width:0.5988189;stroke-miterlimit:4;stroke-opacity:1;stroke-dasharray:none;stroke-dashoffset:0"
       id="rect3050"
       width="198.4252"
       height="304.9494"
       x="468.57144"
       y="118.79076" />
    <path
       sodipodi:nodetypes="ccccccccccccccccccccccccccccccccccccccccc"
       inkscape:connector-curvature="0"
       id="path3087"
       d="m 436.67514,245.46035 0.53556,-134.57456 -3.06603,-2.25906 -300.56603,-0.65191 -1.81603,2.02665 0.14825,133.99095 1.42857,1.87291 23.84476,0.0893 0.84585,1.02678 0.0446,29.67257 0.84821,0.78863 34.83036,0.15629 0.72321,-0.82586 0.80359,-29.65763 1.32142,-1.02678 30.96429,0.40178 1.14286,1.29464 0.96428,28.79465 1.96429,1.17548 33.85714,-0.17857 1.07143,-1.72244 -0.17857,-27.79387 1.42857,-1.54387 32.67857,-0.1153 1.17857,2.32143 -0.53571,27.07958 1.25,1.72244 31.25,0.1153 2.5,-2.20613 0.64286,-27.67857 1.78571,-2.06834 34.39286,0.17857 1.42857,1.72244 0.17857,27.97245 1.25,2.07958 32.67857,0.1153 1.53571,-2.5 0.35714,-27.42548 1.35828,-1.45253 23.447,0.52374 z"
       style="fill:none;stroke:#000000;stroke-width:0.70043236px;stroke-linecap:butt;stroke-linejoin:miter;stroke-opacity:1" />
    <path
       sodipodi:nodetypes="ccccccccccccccccccccccccccccccccccccccccccccc"
       inkscape:connector-curvature="0"
       id="path3089"
       d="m 431.1921,676.72213 1.78564,-2.62309 -0.71437,-133.33737 -3.47504,-2.14753 -299.54646,-1.0761 -3.39284,2.85427 0.53574,163.56855 3.40748,2.21085 27.33605,0.42513 1.79772,-2.86668 0.012,-26.08098 2.32225,-2.18635 21.16113,0.15682 2.5897,2.65682 -0.12503,25.12012 2.01782,2.26297 41.43287,0.51117 2.50429,-3.06027 -0.92854,-24.04456 2.64289,-2.25886 19.91165,0.0671 2.41164,1.85283 -0.9286,26.43399 2.99997,1.434 43.21833,0.11146 2.50404,-3.10283 -0.57141,-24.29114 2.64287,-2.14828 20.00098,-0.37929 2.50097,1.76356 -0.83931,25.34127 3.08925,2.12699 43.03986,-0.0458 1.96842,-3.26009 0.32144,-23.01985 3.17859,-2.6627 18.21527,-0.20074 2.14384,2.6564 -0.37499,24.66957 3.19643,1.81243 18.45841,-0.1303 2.74411,-2.27315 0.17853,-23.63764 1.27749,-2.85135 z"
       style="fill:none;stroke:#000000;stroke-width:0.65739548px;stroke-linecap:butt;stroke-linejoin:miter;stroke-opacity:1" />
    <path
       style="fill:none;stroke:#000000;stroke-width:0.70043236px;stroke-linecap:butt;stroke-linejoin:miter;stroke-opacity:1"
       d="m 436.67514,245.46035 0.53556,-134.57456 -3.06603,-2.25906 -300.56603,-0.65191 -1.81603,2.02665 0.14825,133.99095 1.42857,1.83886 23.84476,0.42854 0.84585,0.72159 0.0446,29.67257 0.84821,0.78863 34.83036,-0.002 0.72321,-0.66788 0.80359,-29.65763 1.32142,-0.85559 30.96429,0 1.14286,1.52523 0.96428,28.79465 1.96429,0.86122 33.85714,0 1.07143,-1.58675 -0.17857,-27.79387 1.42857,-1.80048 32.67857,0 1.17857,2.46274 -0.53571,27.07958 1.25,1.63878 31.25,0 2.5,-2.00717 0.64286,-27.67857 1.78571,-1.49536 34.39286,0 1.42857,1.32803 0.17857,27.97245 1.25,1.88062 32.67857,0 1.53571,-2.18574 0.35714,-27.42548 1.35828,-1.56988 23.447,0 z"
       id="path2997"
       inkscape:connector-curvature="0"
       sodipodi:nodetypes="ccccccccccccccccccccccccccccccccccccccccc" />
    <path
       sodipodi:nodetypes="ccccccccccccccccccccccccccccccccccccccccc"
       inkscape:connector-curvature="0"
       id="path2999"
       d="m 131.22674,325.98394 -0.53556,134.57456 3.06603,2.25906 300.56603,0.65191 1.81603,-2.02665 -0.14825,-133.99095 -1.42857,-1.87291 -23.84476,-0.0893 -0.84585,-1.02678 -0.0446,-29.67257 -0.84821,-0.78863 -34.83036,-0.15629 -0.72321,0.82586 -0.80359,29.65763 -1.32142,1.02678 -30.96429,-0.40178 -1.14286,-1.29464 -0.96428,-28.79465 -1.96429,-1.17548 -33.85714,0.17857 -1.07143,1.72244 0.17857,27.79387 -1.42857,1.54387 -32.67857,0.1153 -1.17857,-2.32143 0.53571,-27.07958 -1.25,-1.72244 -31.25,-0.1153 -2.5,2.20612 -0.64286,27.67857 -1.78571,2.06834 -34.39286,-0.17857 -1.42857,-1.72244 -0.17857,-27.97245 -1.25,-2.07958 -32.67857,-0.1153 -1.53571,2.5 -0.35714,27.42548 -1.35828,1.45253 -23.447,-0.52373 z"
       style="fill:none;stroke:#000000;stroke-width:0.70043236px;stroke-linecap:butt;stroke-linejoin:miter;stroke-opacity:1" />
    <path
       style="fill:none;stroke:#000000;stroke-width:0.65739548px;stroke-linecap:butt;stroke-linejoin:miter;stroke-opacity:1"
       d="m 431.1921,676.72213 1.78564,-2.62309 -0.71437,-133.33737 -3.47504,-2.14753 -299.54646,-1.0761 -3.39284,2.85427 0.53574,163.56855 3.40748,2.21085 27.33605,0.42513 1.79772,-2.86668 0.012,-26.08098 2.32225,-2.18635 21.16113,0.15682 2.5897,2.65682 -0.12503,25.12012 2.01782,2.26297 41.43287,0.51117 2.50429,-3.06027 -0.92854,-24.04456 2.64289,-2.25886 19.91165,0.0671 2.41164,1.85283 -0.9286,26.43399 2.99997,1.434 43.21833,0.11146 2.50404,-3.10283 -0.57141,-24.29114 2.64287,-2.14828 20.00098,-0.37929 2.50097,1.76356 -0.83931,25.34127 3.08925,2.12699 43.03986,-0.0458 1.96842,-3.26009 0.32144,-23.01985 3.17859,-2.6627 18.21527,-0.20074 2.14384,2.6564 -0.37499,24.66957 3.19643,1.81243 18.45841,-0.1303 2.74411,-2.27315 0.17853,-23.63764 1.27749,-2.85135 z"
       id="path3001"
       inkscape:connector-curvature="0"
       sodipodi:nodetypes="ccccccccccccccccccccccccccccccccccccccccccccc" />
    <path
       sodipodi:nodetypes="ccccccccccccccccccccccccccccccccccccccccccccc"
       inkscape:connector-curvature="0"
       id="path3003"
       d="m 126.92038,753.59377 -1.78564,2.62309 0.71437,133.33737 3.47504,2.14753 299.54646,1.0761 3.39284,-2.85427 -0.53574,-163.56855 -3.40748,-2.21085 -27.33605,-0.42513 -1.79772,2.86668 -0.012,26.08097 -2.32225,2.18635 -21.16113,-0.15682 -2.5897,-2.65682 0.12503,-25.12012 -2.01782,-2.26297 -41.43287,-0.51117 -2.50429,3.06027 0.92854,24.04456 -2.64289,2.25886 -19.91165,-0.0671 -2.41164,-1.85283 0.9286,-26.43399 -2.99997,-1.434 -43.21833,-0.11146 -2.50404,3.10283 0.57141,24.29114 -2.64287,2.14828 -20.00098,0.37929 -2.50097,-1.76356 0.83931,-25.34127 -3.08925,-2.12699 -43.03986,0.0458 -1.96842,3.26009 -0.32143,23.01985 -3.17859,2.6627 -18.21527,0.20074 -2.14384,-2.6564 0.37499,-24.66957 -3.19644,-1.81242 -18.4584,0.1303 -2.74411,2.27315 -0.17853,23.63764 -1.27749,2.85135 z"
       style="fill:none;stroke:#000000;stroke-width:0.65739548px;stroke-linecap:butt;stroke-linejoin:miter;stroke-opacity:1" />
    <path
       style="fill:none;stroke:#000000;stroke-width:1px;stroke-linecap:butt;stroke-linejoin:miter;stroke-opacity:1"
       d="m 89.903576,107.86956 0,356.58385 12.121824,12.12182 565.68543,1.01016 14.14213,-13.13198 0,-357.594 L 669.73113,96.757883 97.984795,94.737578 z"
       id="path3043"
       inkscape:connector-curvature="0"
       sodipodi:nodetypes="ccccccccc" />
    <path
       sodipodi:nodetypes="ccccccccc"
       inkscape:connector-curvature="0"
       id="path3045"
       d="m 87.883271,537.18439 0,356.58385 12.121819,12.12182 565.68543,1.01016 14.14213,-13.13198 0,-357.594 -12.12183,-10.10153 -571.74633,-2.0203 z"
       style="fill:none;stroke:#000000;stroke-width:1px;stroke-linecap:butt;stroke-linejoin:miter;stroke-opacity:1" />
  </g>
</svg>
