<?xml version="1.0" encoding="UTF-8" standalone="no"?>
<!-- Created with Inkscape (http://www.inkscape.org/) -->

<svg
   xmlns:dc="http://purl.org/dc/elements/1.1/"
   xmlns:cc="http://creativecommons.org/ns#"
   xmlns:rdf="http://www.w3.org/1999/02/22-rdf-syntax-ns#"
   xmlns:svg="http://www.w3.org/2000/svg"
   xmlns="http://www.w3.org/2000/svg"
   xmlns:sodipodi="http://sodipodi.sourceforge.net/DTD/sodipodi-0.dtd"
   xmlns:inkscape="http://www.inkscape.org/namespaces/inkscape"
   width="744.09448819"
   height="1052.3622047"
   id="svg2"
   version="1.1"
   inkscape:version="0.48.3.1 r9886"
   sodipodi:docname="RasperryPi-Frame.svg">
  <defs
     id="defs4" />
  <sodipodi:namedview
     id="base"
     pagecolor="#ffffff"
     bordercolor="#666666"
     borderopacity="1.0"
     inkscape:pageopacity="0.0"
     inkscape:pageshadow="2"
     inkscape:zoom="0.7"
     inkscape:cx="325.82985"
     inkscape:cy="419.43582"
     inkscape:document-units="px"
     inkscape:current-layer="layer1"
     showgrid="false"
     inkscape:window-width="1215"
     inkscape:window-height="776"
     inkscape:window-x="65"
     inkscape:window-y="24"
     inkscape:window-maximized="1"
     inkscape:snap-global="false" />
  <metadata
     id="metadata7">
    <rdf:RDF>
      <cc:Work
         rdf:about="">
        <dc:format>image/svg+xml</dc:format>
        <dc:type
           rdf:resource="http://purl.org/dc/dcmitype/StillImage" />
        <dc:title />
      </cc:Work>
    </rdf:RDF>
  </metadata>
  <g
     inkscape:label="Layer 1"
     inkscape:groupmode="layer"
     id="layer1">
    <rect
       style="fill:none;stroke:#050504;stroke-width:0.59299999;stroke-linejoin:round;stroke-miterlimit:4;stroke-opacity:1;stroke-dasharray:none;stroke-dashoffset:0"
       id="rect3048"
       width="563.57697"
       height="384.2912"
       x="117.14011"
       y="98.788002"
       ry="10.62992"
       rx="10.629921" />
    <path
       style="fill:none;stroke:#000000;stroke-width:0.70043236px;stroke-linecap:butt;stroke-linejoin:miter;stroke-opacity:1"
       d="m 136.018,328.53768 1.5e-4,130.46742 305.12128,0.46479 0,-130.6229 -26.83346,0 0,-31.88977 -36,0 0,31.88977 -36,0 0,-31.88977 -36,0 0,31.88977 -36,0 0,-31.88977 -36,0 0,31.88977 -36,0 0,-31.88977 -36,0 0,31.88977 z"
       id="path2989"
       inkscape:connector-curvature="0"
       sodipodi:nodetypes="ccccccccccccccccccccc" />
    <rect
       style="fill:#eeeeec;fill-opacity:1;stroke:#eeeeec;stroke-width:0.5988189;stroke-miterlimit:4;stroke-opacity:1;stroke-dasharray:none;stroke-dashoffset:0"
       id="rect3050"
       width="198.4252"
       height="276.37796"
       x="468.57144"
       y="118.79076" />
    <rect
       style="fill:none;stroke:#050504;stroke-width:0.59299999;stroke-linejoin:round;stroke-miterlimit:4;stroke-opacity:1;stroke-dasharray:none;stroke-dashoffset:0"
       id="rect3048-2"
       width="563.57697"
       height="384.2912"
       x="113.4212"
       y="529.32922"
       ry="10.62992"
       rx="10.629921" />
    <path
       style="fill:none;stroke:#000000;stroke-width:0.65739548px;stroke-linecap:butt;stroke-linejoin:miter;stroke-opacity:1"
       d="m 129.42044,570.84819 1.5e-4,138.8176 306.2358,0.72363 -0.35719,-168.20852 -38.06496,-0.31456 -0.2025,30.19765 -11.78737,-0.0916 0.42863,-29.88309 -61.08001,0.4062 -0.28578,28.62486 -13.21615,0.22291 0.42863,-28.93941 -57.50808,-0.22291 0.0714,28.93941 -13.93053,0.22291 0.42863,-29.25397 -58.93685,0.0916 -0.28578,29.25398 -13.93054,0.22291 -0.14287,-28.62486 -28.52395,0.26059 0,13.7831 0.35719,13.78312 z"
       id="path2989-3"
       inkscape:connector-curvature="0"
       sodipodi:nodetypes="cccccccccccccccccccccccc" />
    <rect
       style="fill:#eeeeec;fill-opacity:1;stroke:#eeeeec;stroke-width:0.5988189;stroke-miterlimit:4;stroke-opacity:1;stroke-dasharray:none;stroke-dashoffset:0"
       id="rect3050-2"
       width="198.4252"
       height="276.37796"
       x="464.85254"
       y="549.33197" />
    <path
       sodipodi:nodetypes="ccccccccccccccccccccc"
       inkscape:connector-curvature="0"
       id="path3045"
       d="m 134.58943,121.39481 1.5e-4,127.61028 26.28782,-0.35079 0,31.88976 36,0 0,-31.88976 36,0 0,31.88976 35.99999,0 0,-31.88976 36,0 0,31.88976 36,0 0,-31.88976 36,0 0,31.88976 36,0 0,-31.88976 c 7.46194,0.39614 26.83346,-0.61299 26.83346,-0.61299 l 0,-126.33719 z"
       style="fill:none;stroke:#000000;stroke-width:0.70043236px;stroke-linecap:butt;stroke-linejoin:miter;stroke-opacity:1" />
    <path
       sodipodi:nodetypes="cccccccccccccccccccccccc"
       inkscape:connector-curvature="0"
       id="path3049"
       d="m 435.65777,865.93988 -1.4e-4,-137.64313 -306.23859,-0.71751 0.35719,166.7854 38.06531,0.31189 0.2025,-29.94216 11.78747,0.0909 -0.42863,29.63027 61.08057,-0.40277 0.28578,-28.38268 13.21627,-0.22102 -0.42864,28.69457 57.50861,0.22103 -0.0714,-28.69458 13.93065,-0.22102 -0.42863,29.00646 58.93739,-0.0909 0.28578,-29.00648 13.93066,-0.22102 0.14287,28.38268 28.52421,-0.25838 0,-13.6665 -0.35719,-13.66651 z"
       style="fill:none;stroke:#000000;stroke-width:0.65461165px;stroke-linecap:butt;stroke-linejoin:miter;stroke-opacity:1" />
  </g>
</svg>
