<?xml version="1.0" encoding="UTF-8" standalone="no"?>
<!-- Created with Inkscape (http://www.inkscape.org/) -->

<svg
   xmlns:dc="http://purl.org/dc/elements/1.1/"
   xmlns:cc="http://creativecommons.org/ns#"
   xmlns:rdf="http://www.w3.org/1999/02/22-rdf-syntax-ns#"
   xmlns:svg="http://www.w3.org/2000/svg"
   xmlns="http://www.w3.org/2000/svg"
   xmlns:sodipodi="http://sodipodi.sourceforge.net/DTD/sodipodi-0.dtd"
   xmlns:inkscape="http://www.inkscape.org/namespaces/inkscape"
   width="744.09448819"
   height="1052.3622047"
   id="svg2"
   version="1.1"
   inkscape:version="0.48.3.1 r9886"
   sodipodi:docname="RasperryPi-Frame.svg">
  <defs
     id="defs4" />
  <sodipodi:namedview
     id="base"
     pagecolor="#ffffff"
     bordercolor="#666666"
     borderopacity="1.0"
     inkscape:pageopacity="0.0"
     inkscape:pageshadow="2"
     inkscape:zoom="15.839192"
     inkscape:cx="183.64462"
     inkscape:cy="798.86777"
     inkscape:document-units="px"
     inkscape:current-layer="layer1"
     showgrid="false"
     inkscape:window-width="1625"
     inkscape:window-height="1026"
     inkscape:window-x="55"
     inkscape:window-y="24"
     inkscape:window-maximized="1"
     inkscape:snap-global="false" />
  <metadata
     id="metadata7">
    <rdf:RDF>
      <cc:Work
         rdf:about="">
        <dc:format>image/svg+xml</dc:format>
        <dc:type
           rdf:resource="http://purl.org/dc/dcmitype/StillImage" />
        <dc:title />
      </cc:Work>
    </rdf:RDF>
  </metadata>
  <g
     inkscape:label="Layer 1"
     inkscape:groupmode="layer"
     id="layer1">
    <rect
       style="fill:none;stroke:#050504;stroke-width:0.59299999;stroke-linejoin:round;stroke-miterlimit:4;stroke-opacity:1;stroke-dasharray:none;stroke-dashoffset:0"
       id="rect3048"
       width="563.57697"
       height="384.2912"
       x="117.14011"
       y="98.788002"
       ry="10.62992"
       rx="10.629921" />
    <path
       style="fill:none;stroke:#000000;stroke-width:0.70043236px;stroke-linecap:butt;stroke-linejoin:miter;stroke-opacity:1"
       d="m 131.37515,334.43054 1.5e-4,135.28885 306.72842,1.17908 0,-136.33719 -26.83346,0 0,-31.88977 -36,0 0,31.88977 -36,0 0,-31.88977 -36,0 0,31.88977 -36,0 0,-31.88977 -36,0 0,31.88977 -36,0 0,-31.88977 -36,0 0,31.88977 z"
       id="path2989"
       inkscape:connector-curvature="0"
       sodipodi:nodetypes="ccccccccccccccccccccc" />
    <rect
       style="fill:#eeeeec;fill-opacity:1;stroke:#eeeeec;stroke-width:0.5988189;stroke-miterlimit:4;stroke-opacity:1;stroke-dasharray:none;stroke-dashoffset:0"
       id="rect3050"
       width="198.4252"
       height="304.9494"
       x="468.57144"
       y="118.79076" />
    <rect
       style="fill:none;stroke:#050504;stroke-width:0.59299999;stroke-linejoin:round;stroke-miterlimit:4;stroke-opacity:1;stroke-dasharray:none;stroke-dashoffset:0"
       id="rect3048-2"
       width="563.57697"
       height="384.2912"
       x="113.4212"
       y="529.32922"
       ry="10.62992"
       rx="10.629921" />
    <path
       style="fill:none;stroke:#000000;stroke-width:0.65739548px;stroke-linecap:butt;stroke-linejoin:miter;stroke-opacity:1"
       d="m 125.31329,766.20533 1.5e-4,138.8176 306.2358,0.72363 -0.35719,-168.20852 -31.81496,0.5783 -0.0239,29.30479 -26.07308,0.087 0.25006,-29.52595 -46.43716,0.0491 -0.28578,28.80343 -24.109,-0.13423 0.42863,-28.58227 -48.57951,-0.22291 -0.28575,28.58227 -23.57338,0.0443 0.25006,-28.53969 -48.93685,0.0916 0.0714,28.89684 -22.85911,-0.3128 0.0357,-28.62486 -24.77395,-0.4537 0.17857,14.85453 0.35719,13.78312 z"
       id="path2989-3"
       inkscape:connector-curvature="0"
       sodipodi:nodetypes="cccccccccccccccccccccccc" />
    <path
       sodipodi:nodetypes="cccccccccccccccccccccccc"
       inkscape:connector-curvature="0"
       id="path3087"
       d="m 436.85371,245.99606 -1.5e-4,-137.61027 -305.12127,0.96377 0,136.3372 25.4519,0.26786 0.84585,1.02678 0.0446,29.67257 0.84821,0.78863 34.83036,0.15629 0.72321,-0.82586 0.0893,-31.0862 36,0 0,31.88977 36,0 0,-31.88977 36,0 0,31.88977 36,0 0,-31.88977 36,0 0,31.88977 35.99999,0 0,-31.88977 z"
       style="fill:none;stroke:#000000;stroke-width:0.70043236px;stroke-linecap:butt;stroke-linejoin:miter;stroke-opacity:1" />
    <path
       sodipodi:nodetypes="cccccccccccccccccccccccc"
       inkscape:connector-curvature="0"
       id="path3089"
       d="m 432.26353,677.07927 -1.6e-4,-138.8176 -306.23579,-0.72363 0.35719,168.20853 31.81496,-0.5783 0.0239,-29.3048 26.07308,-0.087 -0.25006,29.52595 46.43716,-0.0491 0.28578,-28.80342 24.109,0.13422 -0.42863,28.58228 48.57951,0.22291 0.28575,-28.58227 23.57338,-0.0443 -0.25006,28.53968 48.93685,-0.0916 -0.0714,-28.89684 22.85911,0.31281 -0.0357,28.62485 24.77395,0.4537 -0.17858,-14.85453 -0.35718,-13.78311 z"
       style="fill:none;stroke:#000000;stroke-width:0.65739548px;stroke-linecap:butt;stroke-linejoin:miter;stroke-opacity:1" />
  </g>
</svg>
