  0
SECTION
  2
HEADER
  9
$ACADVER
  1
AC1014
  9
$HANDSEED
  5
FFFF
  9
$MEASUREMENT
 70
     1
  0
ENDSEC
  0
SECTION
  2
TABLES
  0
TABLE
  2
VPORT
  5
8
330
0
100
AcDbSymbolTable
 70
     4
  0
VPORT
  5
2E
330
8
100
AcDbSymbolTableRecord
100
AcDbViewportTableRecord
  2
*ACTIVE
 70
     0
 10
0.0
 20
0.0
 11
1.0
 21
1.0
 12
210.0
 22
148.5
 13
0.0
 23
0.0
 14
10.0
 24
10.0
 15
10.0
 25
10.0
 16
0.0
 26
0.0
 36
1.0
 17
0.0
 27
0.0
 37
0.0
 40
341.0
 41
1.24
 42
50.0
 43
0.0
 44
0.0
 50
0.0
 51
0.0
 71
     0
 72
   100
 73
     1
 74
     3
 75
     0
 76
     0
 77
     0
 78
     0
  0
ENDTAB
  0
TABLE
  2
LTYPE
  5
5
330
0
100
AcDbSymbolTable
 70
     1
  0
LTYPE
  5
14
330
5
100
AcDbSymbolTableRecord
100
AcDbLinetypeTableRecord
  2
BYBLOCK
 70
     0
  3

 72
    65
 73
     0
 40
0.0
  0
LTYPE
  5
15
330
5
100
AcDbSymbolTableRecord
100
AcDbLinetypeTableRecord
  2
BYLAYER
 70
     0
  3

 72
    65
 73
     0
 40
0.0
  0
LTYPE
  5
16
330
5
100
AcDbSymbolTableRecord
100
AcDbLinetypeTableRecord
  2
CONTINUOUS
 70
     0
  3
Solid line
 72
    65
 73
     0
 40
0.0
  0
ENDTAB
  0
TABLE
  2
LAYER
  5
2
100
AcDbSymbolTable
 70
2
  0
LAYER
  5
50
100
AcDbSymbolTableRecord
100
AcDbLayerTableRecord
  2
0
 70
0
  6
CONTINUOUS
  0
LAYER
  5
51
100
AcDbSymbolTableRecord
100
AcDbLayerTableRecord
  2
Layer_1
 70
0
  6
CONTINUOUS
  0
ENDTAB
  0
TABLE
  2
STYLE
  5
3
330
0
100
AcDbSymbolTable
 70
     1
  0
STYLE
  5
11
330
3
100
AcDbSymbolTableRecord
100
AcDbTextStyleTableRecord
  2
STANDARD
 70
     0
 40
0.0
 41
1.0
 50
0.0
 71
     0
 42
2.5
  3
txt
  4

  0
ENDTAB
  0
TABLE
  2
VIEW
  5
6
330
0
100
AcDbSymbolTable
 70
     0
  0
ENDTAB
  0
TABLE
  2
UCS
  5
7
330
0
100
AcDbSymbolTable
 70
     0
  0
ENDTAB
  0
TABLE
  2
APPID
  5
9
330
0
100
AcDbSymbolTable
 70
     2
  0
APPID
  5
12
330
9
100
AcDbSymbolTableRecord
100
AcDbRegAppTableRecord
  2
ACAD
 70
     0
  0
ENDTAB
  0
TABLE
  2
DIMSTYLE
  5
A
330
0
100
AcDbSymbolTable
 70
     1
  0
DIMSTYLE
105
27
330
A
100
AcDbSymbolTableRecord
100
AcDbDimStyleTableRecord
  2
ISO-25
 70
     0
  3

  4

  5

  6

  7

 40
1.0
 41
2.5
 42
0.625
 43
3.75
 44
1.25
 45
0.0
 46
0.0
 47
0.0
 48
0.0
140
2.5
141
2.5
142
0.0
143
0.03937007874016
144
1.0
145
0.0
146
1.0
147
0.625
 71
     0
 72
     0
 73
     0
 74
     0
 75
     0
 76
     0
 77
     1
 78
     8
170
     0
171
     3
172
     1
173
     0
174
     0
175
     0
176
     0
177
     0
178
     0
270
     2
271
     2
272
     2
273
     2
274
     3
340
11
275
     0
280
     0
281
     0
282
     0
283
     0
284
     8
285
     0
286
     0
287
     3
288
     0
  0
ENDTAB
  0
TABLE
  2
BLOCK_RECORD
  5
1
330
0
100
AcDbSymbolTable
 70
     1
  0
BLOCK_RECORD
  5
1F
330
1
100
AcDbSymbolTableRecord
100
AcDbBlockTableRecord
  2
*MODEL_SPACE
  0
BLOCK_RECORD
  5
1B
330
1
100
AcDbSymbolTableRecord
100
AcDbBlockTableRecord
  2
*PAPER_SPACE
  0
ENDTAB
  0
ENDSEC
  0
SECTION
  2
BLOCKS
  0
BLOCK
  5
20
330
1F
100
AcDbEntity
  8
0
100
AcDbBlockBegin
  2
*MODEL_SPACE
 70
     0
 10
0.0
 20
0.0
 30
0.0
  3
*MODEL_SPACE
  1

  0
ENDBLK
  5
21
330
1F
100
AcDbEntity
  8
0
100
AcDbBlockEnd
  0
BLOCK
  5
1C
330
1B
100
AcDbEntity
 67
     1
  8
0
100
AcDbBlockBegin
  2
*PAPER_SPACE
  1

  0
ENDBLK
  5
1D
330
1B
100
AcDbEntity
 67
     1
  8
0
100
AcDbBlockEnd
  0
ENDSEC
  0
SECTION
  2
ENTITIES
  0
LWPOLYLINE
  5
100
100
AcDbEntity
  8
Layer_1
 62
2
100
AcDbPolyline
 90
5
 70
0
 10
33.059542
 20
269.119831
 30
0.0
 10
192.113487
 20
269.119831
 30
0.0
 10
192.113487
 20
160.664314
 30
0.0
 10
33.059542
 20
160.664314
 30
0.0
 10
33.059542
 20
269.119831
 30
0.0
  0
SPLINE
  5
101
100
AcDbEntity
  8
Layer_1
 62
7
100
AcDbSpline
 70
8
 71
3
 72
8
 73
4
 74
0
 40
0
 40
0
 40
0
 40
0
 40
1
 40
1
 40
1
 40
1
 10
116.120000
 20
173.202006
 30
0.0
 10
118.225926
 20
173.090206
 30
0.0
 10
123.692999
 20
173.375005
 30
0.0
 10
123.692999
 20
173.375005
 30
0.0
  0
LWPOLYLINE
  5
102
100
AcDbEntity
  8
Layer_1
 62
7
100
AcDbPolyline
 90
18
 70
0
 10
37.580951
 20
256.288888
 30
0.0
 10
37.580993
 20
173.103005
 30
0.0
 10
45.000000
 20
173.202006
 30
0.0
 10
45.000000
 20
164.202007
 30
0.0
 10
55.160000
 20
164.202007
 30
0.0
 10
55.160000
 20
173.202006
 30
0.0
 10
65.320000
 20
173.202006
 30
0.0
 10
65.320000
 20
164.202007
 30
0.0
 10
75.480000
 20
164.202007
 30
0.0
 10
75.480000
 20
173.202006
 30
0.0
 10
85.640000
 20
173.202006
 30
0.0
 10
85.640000
 20
164.202007
 30
0.0
 10
95.800000
 20
164.202007
 30
0.0
 10
95.800000
 20
173.202006
 30
0.0
 10
105.960000
 20
173.202006
 30
0.0
 10
105.960000
 20
164.202007
 30
0.0
 10
116.120000
 20
164.202007
 30
0.0
 10
116.120000
 20
173.202006
 30
0.0
  0
LWPOLYLINE
  5
103
100
AcDbEntity
  8
Layer_1
 62
7
100
AcDbPolyline
 90
19
 70
0
 10
123.692999
 20
173.375005
 30
0.0
 10
123.692999
 20
256.201594
 30
0.0
 10
116.120000
 20
256.201594
 30
0.0
 10
116.120000
 20
265.201596
 30
0.0
 10
105.960000
 20
265.201596
 30
0.0
 10
105.960000
 20
256.201594
 30
0.0
 10
95.800000
 20
256.201594
 30
0.0
 10
95.800000
 20
265.201596
 30
0.0
 10
85.640000
 20
265.201596
 30
0.0
 10
85.640000
 20
256.201594
 30
0.0
 10
75.480000
 20
256.201594
 30
0.0
 10
75.480000
 20
265.201596
 30
0.0
 10
65.320000
 20
265.201596
 30
0.0
 10
65.320000
 20
256.201594
 30
0.0
 10
55.160000
 20
256.201594
 30
0.0
 10
55.160000
 20
265.201596
 30
0.0
 10
45.000000
 20
265.201596
 30
0.0
 10
45.000000
 20
256.201594
 30
0.0
 10
37.580951
 20
256.288888
 30
0.0
  0
LWPOLYLINE
  5
104
100
AcDbEntity
  8
Layer_1
 62
2
100
AcDbPolyline
 90
5
 70
0
 10
132.241273
 20
263.474608
 30
0.0
 10
188.241274
 20
263.474608
 30
0.0
 10
188.241274
 20
185.474606
 30
0.0
 10
132.241273
 20
185.474606
 30
0.0
 10
132.241273
 20
263.474608
 30
0.0
  0
LWPOLYLINE
  5
105
100
AcDbEntity
  8
Layer_1
 62
2
100
AcDbPolyline
 90
5
 70
0
 10
32.009983
 20
147.611531
 30
0.0
 10
191.063928
 20
147.611531
 30
0.0
 10
191.063928
 20
39.156015
 30
0.0
 10
32.009983
 20
39.156015
 30
0.0
 10
32.009983
 20
147.611531
 30
0.0
  0
LWPOLYLINE
  5
106
100
AcDbEntity
  8
Layer_1
 62
7
100
AcDbPolyline
 90
42
 70
0
 10
36.531398
 20
134.780591
 30
0.0
 10
36.531440
 20
51.594708
 30
0.0
 10
39.313939
 20
51.593015
 30
0.0
 10
39.313939
 20
42.492220
 30
0.0
 10
47.558858
 20
42.492220
 30
0.0
 10
47.458066
 20
51.794600
 30
0.0
 10
51.066480
 20
51.794600
 30
0.0
 10
51.268066
 20
42.693809
 30
0.0
 10
67.475684
 20
42.492220
 30
0.0
 10
67.374891
 20
51.895396
 30
0.0
 10
70.781717
 20
51.996189
 30
0.0
 10
70.983303
 20
42.492220
 30
0.0
 10
87.896483
 20
42.492220
 30
0.0
 10
88.098068
 20
52.096982
 30
0.0
 10
91.404101
 20
52.096982
 30
0.0
 10
91.303306
 20
42.492220
 30
0.0
 10
108.216483
 20
42.492220
 30
0.0
 10
108.496235
 20
51.934811
 30
0.0
 10
112.063095
 20
52.019599
 30
0.0
 10
111.900592
 20
42.528991
 30
0.0
 10
122.542667
 20
42.492996
 30
0.0
 10
122.845048
 20
143.966411
 30
0.0
 10
112.103781
 20
144.067204
 30
0.0
 10
112.046639
 20
134.391015
 30
0.0
 10
108.720450
 20
134.420383
 30
0.0
 10
108.841402
 20
143.995779
 30
0.0
 10
91.605687
 20
143.865618
 30
0.0
 10
91.525045
 20
134.693396
 30
0.0
 10
87.795679
 20
134.621971
 30
0.0
 10
87.916631
 20
143.894983
 30
0.0
 10
71.688853
 20
143.966411
 30
0.0
 10
71.709003
 20
134.693396
 30
0.0
 10
67.778051
 20
134.621971
 30
0.0
 10
67.899003
 20
143.995779
 30
0.0
 10
51.268051
 20
143.966414
 30
0.0
 10
51.187409
 20
134.592603
 30
0.0
 10
47.256454
 20
134.521176
 30
0.0
 10
47.216139
 20
143.693398
 30
0.0
 10
39.167178
 20
143.609900
 30
0.0
 10
39.167178
 20
139.193398
 30
0.0
 10
39.267971
 20
134.776894
 30
0.0
 10
36.531398
 20
134.780591
 30
0.0
  0
LWPOLYLINE
  5
107
100
AcDbEntity
  8
Layer_1
 62
2
100
AcDbPolyline
 90
5
 70
0
 10
131.191717
 20
141.966311
 30
0.0
 10
187.191718
 20
141.966311
 30
0.0
 10
187.191718
 20
63.966309
 30
0.0
 10
131.191717
 20
63.966309
 30
0.0
 10
131.191717
 20
141.966311
 30
0.0
  0
ENDSEC
  0
SECTION
  2
OBJECTS
  0
DICTIONARY
  5
C
330
0
100
AcDbDictionary
  3
ACAD_GROUP
350
D
  3
ACAD_MLINESTYLE
350
17
  0
DICTIONARY
  5
D
330
C
100
AcDbDictionary
  0
DICTIONARY
  5
1A
330
C
100
AcDbDictionary
  0
DICTIONARY
  5
17
330
C
100
AcDbDictionary
  3
STANDARD
350
18
  0
DICTIONARY
  5
19
330
C
100
AcDbDictionary
  0
ENDSEC
  0
EOF
